<?xml version="1.0" encoding="UTF-8"?><svg id="Layer_1" xmlns="http://www.w3.org/2000/svg" viewBox="0 0 1385 200"><path d="m361.86,188.75c41.09,0,65.45-23.84,73.58-51.81l-23.41-9.24c-6.21,20.43-18.63,38.92-50.17,38.92-33.92,0-56.38-27.73-56.38-68.11s22.69-64.7,56.38-64.7,44.67,21.89,49.45,36.97l23.89-8.76c-6.93-23.84-30.58-50.35-73.34-50.35-48.73,0-81.94,37.46-81.94,87.08s29.62,90,81.94,90Zm94.67-3.4h22.45V15.07h-22.45v170.27Zm101.25,3.4c31.77,0,56.14-26.76,56.14-63.49s-23.41-63.97-56.14-63.97-56.38,27.24-56.38,63.97,24.37,63.49,56.38,63.49Zm0-19.7c-19.59,0-32.97-14.11-32.97-43.54s13.38-44.51,32.97-44.51,32.73,14.84,32.73,44.51-13.38,43.54-32.73,43.54Zm116.01,19.7c24.37,0,35.59-17.03,39.42-24.08v20.68h21.98v-120.65h-22.45v52.54c0,18.73-1.43,51.57-31.06,51.57-14.81,0-24.37-8.76-24.37-30.41v-73.7h-22.46v79.05c0,26.76,11.94,45,38.94,45Zm133.33,0c20.78,0,32.49-11.68,38.22-21.65v18.24h21.98V15.07h-22.45v68.11c-5.73-9.97-17.2-21.89-37.74-21.89-27.95,0-48.73,24.32-48.73,63.97s20.78,63.49,48.73,63.49Zm6.21-19.46c-18.16,0-31.77-11.19-31.77-44.03s13.62-44.51,31.77-44.51c19.11,0,32.73,14.84,32.73,44.51s-13.62,44.03-32.73,44.03Zm90.07,16.06h23.89v-76.87h87.67v76.87h23.89V15.07h-23.89v71.03h-87.67V15.07h-23.89v170.27Zm215.66,3.4c24.61,0,43.48-11.68,52.08-34.78l-20.55-7.54c-3.34,8.51-11.7,23.11-30.81,23.11-16.25,0-32.01-9.73-32.97-38.68h83.37c4.3-39.41-16.72-69.57-52.07-69.57-30.82,0-53.75,24.81-53.75,64.22s21.74,63.24,54.7,63.24Zm-31.77-76.14c1.91-20.92,15.53-33.08,30.82-33.08s29.14,11.43,29.38,33.08h-60.2Zm107.28,72.73h22.46v-54.24c0-28.46,10.98-44.51,37.26-44.51,4.78,0,8.84.49,12.66.97v-23.35c-2.63-.73-5.97-1.22-10.99-1.22-23.65,0-35.35,18-39.41,27.24v-25.54h-21.98v120.65Zm133.91,3.4c31.77,0,56.14-26.76,56.14-63.49s-23.42-63.97-56.14-63.97-56.38,27.24-56.38,63.97,24.37,63.49,56.38,63.49Zm0-19.7c-19.59,0-32.97-14.11-32.97-43.54s13.38-44.51,32.97-44.51,32.72,14.84,32.72,44.51-13.37,43.54-32.72,43.54Zm-1188.99-22.53l60.46-7.07v-28.93h-47.58c-36.7,0-57.29,40.86-34.68,68.81l16.73,20.68h39.33l-34.26-53.49Zm-79.03,0L0,139.44v-28.93h47.58c36.7,0,57.29,40.86,34.68,68.8l-16.73,20.68H26.2l34.26-53.49ZM0,60.56l60.46-7.07L26.2,0h39.33s16.73,20.68,16.73,20.68c22.61,27.95,2.02,68.81-34.68,68.81H0v-28.93Zm139.49-7.07l60.46,7.07v28.93h-47.58c-36.7,0-57.29-40.86-34.68-68.81L134.42,0h39.33s-34.26,53.49-34.26,53.49Z"/></svg>