<svg xmlns="http://www.w3.org/2000/svg" xmlns:xlink="http://www.w3.org/1999/xlink" version="1.1" id="Layer_1" x="0px" y="0px" viewBox="0 0 200 101.9" style="enable-background:new 0 0 200 101.9;" xml:space="preserve" width="200"  height="101.9" >
<style type="text/css">
	.st0{fill-rule:evenodd;clip-rule:evenodd;fill:#FF4C22;}
	.st1{fill-rule:evenodd;clip-rule:evenodd;fill:#004995;}
</style>
<polygon class="st0" points="71.7,40.6 83.9,40.6 83.9,29.9 71.7,29.9 "/>
<rect x="71.7" y="42.8" class="st1" width="12.2" height="59.1"/>
<polygon class="st1" points="96.5,53.7 90.4,53.7 90.4,68.4 96.5,68.4 96.5,92.7 96.5,92.7 86,92.7 86,42.1 86,42.1 86,27.9   77.2,27.9 77.2,16.4 68.2,16.4 73.2,8.6 53.7,8.6 53.7,0 144.8,0 144.8,16.4 96.5,16.4 "/>
<polygon class="st1" points="129.7,66.3 129.7,55.9 110.6,55.9 110.6,40.5 133.8,40.5 133.8,49.3 144.7,49.3 144.7,29.9 98.8,29.9   98.8,55.9 92.6,55.9 92.6,66.2 98.8,66.2 98.8,92.7 144.7,92.7 144.7,92.7 144.7,74 133.8,74 133.8,82.8 110.6,82.8 110.6,66.3 "/>
<path class="st1" d="M200,92.7L200,92.7V64h-15v14h-32c0-30.3,0-24.4,0-52.8h32v15.4h15V10.8h-53v7.8h-9V28h9v23.4h-9v20.3h9v20.9  L200,92.7L200,92.7z"/>
<path class="st1" d="M69.1,11L26.2,78.6h28.1V64.2h15v28.7H0l43-67.5H16.6v15.3H1.5V11H69.1z"/>
</svg>